<svg width="73" height="59" viewBox="0 0 73 59" fill="none" xmlns="http://www.w3.org/2000/svg">
<g clip-path="url(#clip0_658_1816)">
<path d="M0 47.7593V44.3485H10.5765V47.7593H0ZM3.34797 58.6737V38.3875H7.22909V58.6737H3.34797Z" fill="white"/>
<path d="M13.243 42.0351C12.6108 42.0351 12.0878 41.8229 11.6729 41.3974C11.258 40.9725 11.0508 40.4435 11.0508 39.8106C11.0508 39.1778 11.258 38.6739 11.6729 38.2388C12.0878 37.8043 12.6108 37.5862 13.243 37.5862C13.8752 37.5862 14.4227 37.8037 14.828 38.2388C15.2328 38.6739 15.4352 39.198 15.4352 39.8106C15.4352 40.4233 15.2323 40.9725 14.828 41.3974C14.4233 41.8229 13.8949 42.0351 13.243 42.0351ZM11.258 58.6733V44.3481H15.1982V58.6733H11.258Z" fill="white"/>
<path d="M23.8778 59C22.4361 59 21.1322 58.6689 19.9674 58.0066C18.8021 57.3444 17.8833 56.4449 17.2122 55.3076C16.5406 54.1709 16.2051 52.9104 16.2051 51.5263C16.2051 50.1421 16.5406 48.8225 17.2122 47.6857C17.8833 46.549 18.8021 45.6543 19.9674 45.0016C21.1328 44.349 22.4456 44.0227 23.9077 44.0227C25.0336 44.0227 26.0706 44.2258 27.0186 44.6305C27.9667 45.0358 28.7965 45.6345 29.507 46.4247L26.959 48.9755C26.6032 48.5409 26.1638 48.2146 25.6408 47.9966C25.1172 47.779 24.5393 47.6702 23.9077 47.6702C23.1966 47.6702 22.5596 47.8334 21.9967 48.1597C21.4337 48.486 20.9938 48.936 20.6785 49.5092C20.3621 50.0829 20.2044 50.7451 20.2044 51.4964C20.2044 52.2477 20.3621 52.9104 20.6785 53.4836C20.9943 54.0573 21.4337 54.5121 21.9967 54.848C22.5596 55.1845 23.1966 55.3524 23.9077 55.3524C24.5596 55.3524 25.1417 55.2389 25.6557 55.0112C26.1691 54.7841 26.6229 54.4529 27.0186 54.0179L29.507 56.5388C28.8156 57.33 27.9912 57.9379 27.033 58.3628C26.0748 58.7878 25.0229 59.0005 23.8778 59.0005V59Z" fill="white"/>
<path d="M30.2471 58.6737V37.2305H34.1282V58.6737H30.2471ZM39.3424 58.6737L33.8321 51.2885L39.3131 44.3485H43.8163L37.3579 52.1784L37.506 50.2803L44.0832 58.6737H39.3429H39.3424Z" fill="white"/>
<path d="M50.6304 59C49.129 59 47.7911 58.6737 46.6161 58.0211C45.4407 57.3685 44.5171 56.4791 43.846 55.3519C43.1744 54.2248 42.8389 52.9398 42.8389 51.4965C42.8389 50.0531 43.1696 48.7975 43.8311 47.6703C44.4926 46.5431 45.3964 45.6538 46.5421 45.0012C47.6872 44.3485 48.9713 44.0222 50.3934 44.0222C51.7361 44.0222 52.9414 44.3288 54.0077 44.9414C55.0739 45.5546 55.9037 46.405 56.496 47.4922C57.0883 48.5799 57.3849 49.8158 57.3849 51.1995C57.3849 51.4565 57.3748 51.7183 57.3551 51.9854C57.3354 52.2525 57.2859 52.5442 57.207 52.8604L45.1493 52.8902V49.9838L55.3999 49.9539L53.7999 51.1701C53.7802 50.3202 53.6322 49.6084 53.3557 49.0347C53.0788 48.4615 52.6937 48.0265 52.2005 47.73C51.7068 47.4336 51.0943 47.2853 50.3635 47.2853C49.5934 47.2853 48.9218 47.4533 48.3492 47.7897C47.7761 48.1262 47.3367 48.6055 47.031 49.2283C46.7248 49.851 46.5719 50.5879 46.5719 51.4378C46.5719 52.2877 46.7349 53.0646 47.0609 53.7065C47.3868 54.3496 47.8555 54.8385 48.468 55.1744C49.08 55.5108 49.791 55.6788 50.6011 55.6788C51.3318 55.6788 51.9933 55.5599 52.5861 55.3226C53.1784 55.0853 53.6918 54.71 54.1264 54.1955L56.4374 56.509C55.7067 57.3391 54.8476 57.9624 53.8601 58.3773C52.8721 58.7926 51.7963 59 50.6309 59H50.6304Z" fill="white"/>
<path d="M56.7627 47.7593V44.3485H67.3392V47.7593H56.7627ZM60.1107 58.6737V38.3875H63.9918V58.6737H60.1107Z" fill="white"/>
<path d="M69.7095 59C68.9788 59 68.386 58.7574 67.9322 58.2732C67.4773 57.7891 67.251 57.201 67.251 56.5084C67.251 55.8157 67.4779 55.2084 67.9322 54.7435C68.3865 54.2791 68.9788 54.0466 69.7095 54.0466C70.4008 54.0466 70.9782 54.2791 71.4426 54.7435C71.9065 55.2084 72.1387 55.7966 72.1387 56.5084C72.1387 57.2202 71.9065 57.7886 71.4426 58.2732C70.9782 58.7574 70.4008 59 69.7095 59Z" fill="white"/>
<path d="M24.6309 4.99493L22.1048 23.1159C21.2755 29.0652 15.7854 33.215 9.84252 32.3848C3.89915 31.5541 -0.246133 26.058 0.583137 20.1087L3.1093 1.98828L15.142 3.66943C14.694 5.01946 14.0224 6.28312 13.2991 7.50678C12.202 9.32762 11.0057 11.1085 10.1669 13.0669C9.20819 15.3015 8.81566 17.7253 9.01645 20.1476C9.12723 21.4875 9.44999 22.8248 9.93094 24.0804C10.25 24.9138 11.3333 25.3889 12.1556 25.0076C13.0094 24.612 13.4243 23.6725 13.0818 22.7805C12.9519 22.4419 12.8379 22.0986 12.7383 21.7509C12.4954 20.7784 12.3692 19.784 12.3554 18.7827C12.382 17.8011 12.5162 16.8259 12.7639 15.8752C13.2209 14.3748 13.9516 12.9821 14.7484 11.6358C15.7358 9.99464 16.801 8.38975 17.6159 6.65368C17.9957 5.84217 18.2982 5.0056 18.5336 4.1429L24.6298 4.9944L24.6309 4.99493Z" fill="#3FD246"/>
<path d="M63.0768 0L71.3914 16.2932C74.121 21.6427 72.0023 28.1945 66.6586 30.9276C61.315 33.6602 54.7703 31.5392 52.0401 26.1897L43.7256 9.89652L54.5444 4.36362C54.9508 5.72645 55.125 7.1474 55.2336 8.56461C55.3785 10.6862 55.419 12.8317 55.8541 14.9181C56.3495 17.2988 57.4168 19.5099 58.9694 21.3787C59.8279 22.4126 60.8585 23.3227 61.9717 24.0751C62.7109 24.5747 63.8704 24.3417 64.3253 23.5573C64.7977 22.7432 64.599 21.7354 63.8081 21.2012C63.5077 20.9986 63.2174 20.7826 62.9368 20.555C62.1805 19.8975 61.5072 19.1559 60.9224 18.3438C60.3818 17.5243 59.9328 16.6488 59.5914 15.7275C59.1062 14.2361 58.9065 12.6755 58.7877 11.1154C58.6562 9.2039 58.6088 7.27749 58.2818 5.38734C58.1278 4.50438 57.8962 3.64594 57.5947 2.80351L63.0768 0Z" fill="#3FD246"/>
<path d="M38.3789 11.0439C38.4284 11.0066 38.478 10.9671 38.527 10.9261C38.5935 10.8781 38.658 10.8269 38.723 10.7778C38.609 10.8663 38.4929 10.9554 38.3789 11.0439Z" fill="#3FD246"/>
<path d="M29.9621 26.137C29.6723 26.5107 29.4625 26.8498 29.4625 27.3446C29.4625 27.7626 29.6484 28.2622 29.9621 28.5507C30.2875 28.8493 30.7136 29.0711 31.1668 29.0508C31.586 29.0322 32.1026 28.8973 32.3716 28.5507C33.791 26.7235 35.2344 24.9 36.9185 23.3079C37.3515 22.9 37.7978 22.5075 38.2649 22.1407C39.1187 21.4993 40.0289 20.9416 41.0036 20.5043C41.0052 20.5028 41.0068 20.5012 41.0089 20.5012C41.9207 20.138 42.8666 19.897 43.836 19.752C43.8413 19.7504 43.8445 19.7504 43.8498 19.7504C44.8927 19.6294 45.9408 19.5985 46.989 19.5814V32.757H25.2607V20.1546C29.1019 18.4894 32.7354 16.4116 36.0652 13.8592C37.1304 13.044 38.1733 12.1994 39.1773 11.309C39.4926 11.0307 39.6768 10.514 39.6768 10.1029C39.6768 9.69181 39.491 9.18529 39.1773 8.89683C38.8518 8.59825 38.4257 8.37644 37.9725 8.39723C37.5054 8.41963 37.1187 8.58492 36.7677 8.89683C35.9752 9.59957 35.1609 10.2773 34.3273 10.9251C31.7404 12.9043 28.9645 14.6307 26.0415 16.0672C25.7827 16.1951 25.5217 16.3199 25.2613 16.4425V3.58521H46.9895V16.1722C45.2889 16.2031 43.5862 16.2762 41.9197 16.6483C38.5541 17.3991 35.7132 19.5505 33.3921 22.0207C32.1687 23.3244 31.0592 24.7283 29.9631 26.1375L29.9621 26.137Z" fill="#3FD246"/>
<path d="M38.723 10.7778C38.609 10.8663 38.4929 10.9554 38.3789 11.0439C38.4284 11.0066 38.478 10.9671 38.527 10.9261C38.5935 10.8781 38.658 10.8269 38.723 10.7778Z" fill="#3FD246"/>
</g>
<defs>
<clipPath id="clip0_658_1816">
<rect width="72.5827" height="59" fill="white"/>
</clipPath>
</defs>
</svg>
