<svg id="Layer_1" data-name="Layer 1" xmlns="http://www.w3.org/2000/svg" viewBox="0 0 4358.42 905.21"><rect x="609.71" y="244.39" width="248.81" height="144.97" rx="14.64" style="fill:#30d75f"/><path d="M847.73,702.68c0-33.25-19.69-62.86-49.68-77.24a118.16,118.16,0,0,1-67.16-106.62V214.38a88.26,88.26,0,0,0-88.26-88.26h-2.72a88.26,88.26,0,0,0-88.26,88.26V509.82c0,121.23,72.85,225.44,177.16,271.24,56.05,24.61,118.92-16.57,118.92-77.79Z" style="fill:#30d75f"/><path d="M551.21,214.38V518.82A118.21,118.21,0,0,1,433,637h0a118.21,118.21,0,0,1-118.21-118.2V476.05a88.26,88.26,0,0,0-88.26-88.26h0a88.26,88.26,0,0,0-88.25,88.26v33.77c0,163.53,132.56,296.09,296.08,296.09h0c163.53,0,296.09-132.56,296.09-296.09V214.38a88.27,88.27,0,0,0-88.26-88.26h-2.73A88.26,88.26,0,0,0,551.21,214.38Z" style="fill:#00363f"/><circle cx="220.96" cy="285.25" r="93.83" style="fill:#00363f"/><path d="M1410.41,673.81h-69.67V633.47c-22,28.72-59.89,45.23-99.62,45.23-78.84,0-138.73-49.51-138.73-143.63v-198h69.06V524.69c0,61.72,33.61,93.5,84.34,93.5,51.34,0,85-31.78,85-93.5V337.06h69.67Z" style="fill:#001d25"/><path d="M1716.6,393.9,1563.82,617H1716.6v56.84H1483.15V617L1636.54,393.9H1483.15V337.06H1716.6Z" style="fill:#001d25"/><path d="M2094.91,673.81h-69.67V633.47c-22,28.72-59.89,45.23-99.62,45.23-78.83,0-138.73-49.51-138.73-143.63v-198H1856V524.69c0,61.72,33.62,93.5,84.34,93.5,51.34,0,85-31.78,85-93.5V337.06h69.67Z" style="fill:#001d25"/><path d="M2356.49,393.9h-39.72V337.06h39.72V253.34h70.29v83.72h81.89V393.9h-81.89V580.3c0,25.06,9.77,35.45,39.11,35.45h42.78v58.06h-55c-59.9,0-97.18-25.06-97.18-93.51Z" style="fill:#001d25"/><path d="M2563.68,247.84a44.09,44.09,0,0,1,44.61-44.62c24.45,0,44,19.56,44,44.62s-19.55,44.61-44,44.61A44.09,44.09,0,0,1,2563.68,247.84Zm9.16,89.22h69.67V673.81h-69.67Z" style="fill:#001d25"/><path d="M2876,331.56c82.51,0,136.29,40.95,155.24,111.84H2956c-11.62-32.39-38.51-53.17-80.07-53.17-56.22,0-93.5,41.56-93.5,114.9,0,74,37.28,115.51,93.5,115.51,41.56,0,67.23-18.34,80.07-53.17h75.17c-18.95,66-72.73,111.84-155.24,111.84-96.56,0-165-68.45-165-174.18C2711,400,2779.41,331.56,2876,331.56Z" style="fill:#001d25"/><path d="M3100.89,221.56h69.67V484.35l122.23-147.29h96.56L3234.12,505.74l155.23,168.07h-94.12L3170.56,529V673.81h-69.67Z" style="fill:#001d25"/><path d="M3584.31,679.31c-96.56,0-168.07-68.45-168.07-174.18s68.45-173.57,168.07-173.57c96,0,163.79,66.62,163.79,165.62a214.16,214.16,0,0,1-2.45,34.23H3488.36c4.89,55.61,44.61,89.23,95.95,89.23,42.78,0,66.61-20.78,79.45-47.06h75.17C3720,632.25,3666.81,679.31,3584.31,679.31ZM3489,475.18h186.4c-1.22-51.94-42.17-84.95-94.12-84.95C3534.19,390.23,3496.3,422,3489,475.18Z" style="fill:#001d25"/><path d="M3827.55,393.9h-39.72V337.06h39.72V253.34h70.29v83.72h81.89V393.9h-81.89V580.3c0,25.06,9.78,35.45,39.11,35.45h42.78v58.06h-55c-59.9,0-97.18-25.06-97.18-93.51Z" style="fill:#001d25"/><path d="M4166.14,679.31c-80.67,0-137.51-47.67-140.57-108.79h72.12c2.44,27.5,28.72,50.12,67.22,50.12,40.34,0,61.73-17.12,61.73-40.34,0-66-195.57-28.11-195.57-151.56,0-53.79,50.12-97.18,129.56-97.18,76.4,0,126.51,40.95,130.18,108.18h-69.67c-2.44-29.34-25.06-49.51-63-49.51-37.28,0-56.83,15.28-56.83,37.9,0,67.83,190.06,29.94,193.73,151.56C4295.09,636.53,4245.59,679.31,4166.14,679.31Z" style="fill:#001d25"/></svg>