<svg xmlns="http://www.w3.org/2000/svg" width="122.392" height="58.091" viewBox="0 0 122.392 58.091">
  <g id="Group_18" data-name="Group 18" transform="translate(-659.715 -578.777)">
    <rect id="Rectangle_96" data-name="Rectangle 96" width="47.263" height="47.263" rx="15" transform="translate(661.246 584.191)" fill="#122114"/>
    <rect id="Rectangle_97" data-name="Rectangle 97" width="47.263" height="47.263" rx="15" transform="matrix(0.964, 0.265, -0.265, 0.964, 672.229, 578.777)" fill="#31d760"/>
    <g id="Group_13" data-name="Group 13" transform="translate(740.499 593.846)">
      <path id="Path_8" data-name="Path 8" d="M903.75,638.173l8.18.746a2.17,2.17,0,0,1,2.17,2.17h0a2.17,2.17,0,0,1-2.17,2.17l-12.1-1.243a2.454,2.454,0,0,1-2.454-2.455h0a2.456,2.456,0,0,1,.5-1.48l8.363-9.161-5.565-1.192c-.438-.146-.893-.234-1.343-.339a2.17,2.17,0,0,1-1.672-2.112h0a2.17,2.17,0,0,1,2.17-2.17l10.486,1.971a2.375,2.375,0,0,1,2.375,2.375h0a2.373,2.373,0,0,1-.48,1.432Z" transform="translate(-897.374 -623.107)" fill="#161615"/>
    </g>
    <path id="Path_9" data-name="Path 9" d="M843.7,697.85V699.5h1.276v.9H843.7v4.242a.949.949,0,0,0,.171.617.717.717,0,0,0,.581.205,2.814,2.814,0,0,0,.555-.076v.942a3.408,3.408,0,0,1-.9.125,1.454,1.454,0,0,1-1.181-.474,2.035,2.035,0,0,1-.4-1.345v-4.236h-1.244v-.9h1.244V697.85Z" transform="translate(-119.856 -78.598)" fill="#161615"/>
    <path id="Path_10" data-name="Path 10" d="M856.17,696.074a.7.7,0,0,1,.174-.48.651.651,0,0,1,.514-.2.663.663,0,0,1,.518.2.692.692,0,0,1,.177.48.692.692,0,1,1-1.383,0Z" transform="translate(-129.677 -76.98)" fill="#161615"/>
    <rect id="Rectangle_98" data-name="Rectangle 98" width="1.168" height="6.832" transform="translate(726.588 620.907)" fill="#161615"/>
    <path id="Path_11" data-name="Path 11" d="M867.535,708.477a1.683,1.683,0,0,0,1.092-.379,1.335,1.335,0,0,0,.518-.947h1.1a2.119,2.119,0,0,1-.4,1.118,2.659,2.659,0,0,1-.995.846,2.869,2.869,0,0,1-1.316.316,2.815,2.815,0,0,1-2.219-.931,3.709,3.709,0,0,1-.824-2.548v-.2a4.118,4.118,0,0,1,.366-1.774,2.786,2.786,0,0,1,1.051-1.206,2.987,2.987,0,0,1,1.62-.429,2.739,2.739,0,0,1,1.91.688,2.458,2.458,0,0,1,.811,1.787h-1.1a1.611,1.611,0,0,0-.5-1.089,1.56,1.56,0,0,0-1.114-.426,1.635,1.635,0,0,0-1.38.641,3.01,3.01,0,0,0-.489,1.853v.221a2.949,2.949,0,0,0,.486,1.818A1.642,1.642,0,0,0,867.535,708.477Z" transform="translate(-135.17 -81.566)" fill="#161615"/>
    <path id="Path_12" data-name="Path 12" d="M887.216,700.819l-.732.764v2.4h-1.168v-9.7h1.168v5.866l.625-.751,2.128-2.248h1.421L888,700l2.968,3.978H889.6Z" transform="translate(-148.915 -76.244)" fill="#161615"/>
    <path id="Path_13" data-name="Path 13" d="M909.13,705.737a3.8,3.8,0,0,0-.739-2.513,2.56,2.56,0,0,0-2.071-.877,2.732,2.732,0,0,0-1.512.451,3.029,3.029,0,0,0-1.086,1.25,4.1,4.1,0,0,0-.388,1.815v.215a3.385,3.385,0,0,0,.871,2.44,2.986,2.986,0,0,0,2.261.912,2.869,2.869,0,0,0,2.576-1.32l-.714-.556a2.621,2.621,0,0,1-.752.669,2.031,2.031,0,0,1-1.048.253,1.855,1.855,0,0,1-1.436-.622,2.423,2.423,0,0,1-.59-1.632h4.628Zm-1.168-.474h-3.422a2.5,2.5,0,0,1,.593-1.443,1.558,1.558,0,0,1,1.187-.515,1.467,1.467,0,0,1,1.162.49,2.224,2.224,0,0,1,.48,1.379Z" transform="translate(-160.808 -81.566)"/>
    <path id="Path_14" data-name="Path 14" d="M924.34,697.85V699.5h1.276v.9H924.34v4.242a.949.949,0,0,0,.171.617.717.717,0,0,0,.581.205,2.814,2.814,0,0,0,.556-.076v.942a3.408,3.408,0,0,1-.9.125,1.454,1.454,0,0,1-1.181-.474,2.035,2.035,0,0,1-.4-1.345v-4.236h-1.244v-.9h1.244V697.85Z" transform="translate(-173.083 -78.598)" fill="#161615"/>
    <path id="Path_15" data-name="Path 15" d="M940.214,707.492a.859.859,0,0,0-.357-.736,3.433,3.433,0,0,0-1.244-.451,5.886,5.886,0,0,1-1.408-.455,2,2,0,0,1-.771-.632,1.509,1.509,0,0,1-.249-.871,1.773,1.773,0,0,1,.71-1.421,2.776,2.776,0,0,1,1.815-.581,2.854,2.854,0,0,1,1.885.6,1.905,1.905,0,0,1,.723,1.534h-1.174a1.054,1.054,0,0,0-.407-.827,1.527,1.527,0,0,0-1.026-.347,1.6,1.6,0,0,0-1,.278.874.874,0,0,0-.36.726.708.708,0,0,0,.335.638,4.115,4.115,0,0,0,1.209.411,6.274,6.274,0,0,1,1.418.467,2.067,2.067,0,0,1,.8.653,1.607,1.607,0,0,1,.262.932,1.748,1.748,0,0,1-.733,1.468,3.071,3.071,0,0,1-1.9.552,3.435,3.435,0,0,1-1.452-.29,2.363,2.363,0,0,1-.988-.811,1.956,1.956,0,0,1-.357-1.127h1.168a1.21,1.21,0,0,0,.47.932,1.828,1.828,0,0,0,1.159.344,1.884,1.884,0,0,0,1.064-.268A.824.824,0,0,0,940.214,707.492Z" transform="translate(-182.34 -81.566)" fill="#161615"/>
    <g id="Group_14" data-name="Group 14" transform="translate(678.725 592.94)">
      <path id="Path_16" data-name="Path 16" d="M734.339,620.443a2.916,2.916,0,0,1,2.916,2.916v15.727a9.545,9.545,0,0,1-2.906,7.348,11.2,11.2,0,0,1-7.941,2.7,11.329,11.329,0,0,1-7.873-2.625,8.6,8.6,0,0,1-2.568-4.185,10.005,10.005,0,0,1-.129-4.509l1.747-8.352a2.916,2.916,0,0,1,2.916-2.916h0a2.916,2.916,0,0,1,2.916,2.916l-1.842,8.7a7.017,7.017,0,0,0-.062,2.492,4.4,4.4,0,0,0,1.212,2.521,5.109,5.109,0,0,0,3.684,1.273q3.935,0,4.771-3.309a6.607,6.607,0,0,0,.036-2.853l-1.737-9.1a7.916,7.916,0,0,1,3.309-8.115,3.171,3.171,0,0,1,1.534-.628Z" transform="translate(-715.641 -620.443)" fill="#fff"/>
    </g>
    <g id="Group_16" data-name="Group 16" transform="translate(721.456 592.446)">
      <g id="Group_15" data-name="Group 15" transform="translate(0)">
        <path id="Path_17" data-name="Path 17" d="M855.064,618.99a2.138,2.138,0,0,1,2.138,2.138v11.533a7,7,0,0,1-2.131,5.389,8.217,8.217,0,0,1-5.824,1.982,8.309,8.309,0,0,1-5.774-1.925,6.312,6.312,0,0,1-1.883-3.069,7.341,7.341,0,0,1-.095-3.307l1.281-6.125a2.138,2.138,0,0,1,2.138-2.138h0a2.139,2.139,0,0,1,2.138,2.138l-1.351,6.38a5.139,5.139,0,0,0-.046,1.827,3.229,3.229,0,0,0,.889,1.849,3.748,3.748,0,0,0,2.7.934q2.885,0,3.5-2.427a4.843,4.843,0,0,0,.026-2.092L851.5,625.4a5.806,5.806,0,0,1,2.426-5.951,2.327,2.327,0,0,1,1.125-.46Z" transform="translate(-841.352 -618.99)" fill="#161615"/>
      </g>
    </g>
    <g id="Group_17" data-name="Group 17" transform="translate(757.502 592.446)">
      <path id="Path_18" data-name="Path 18" d="M961.107,618.99a2.139,2.139,0,0,1,2.138,2.138v11.533a7,7,0,0,1-2.131,5.389,8.217,8.217,0,0,1-5.824,1.982,8.309,8.309,0,0,1-5.774-1.925,6.313,6.313,0,0,1-1.883-3.069,7.34,7.34,0,0,1-.094-3.307l1.281-6.125a2.138,2.138,0,0,1,2.138-2.138h0a2.139,2.139,0,0,1,2.138,2.138l-1.351,6.38a5.137,5.137,0,0,0-.046,1.827,3.228,3.228,0,0,0,.889,1.849,3.747,3.747,0,0,0,2.7.934q2.885,0,3.5-2.427a4.848,4.848,0,0,0,.026-2.092l-1.274-6.676a5.806,5.806,0,0,1,2.426-5.951,2.328,2.328,0,0,1,1.125-.46Z" transform="translate(-947.396 -618.99)" fill="#31d760"/>
    </g>
    <circle id="Ellipse_26" data-name="Ellipse 26" cx="2.839" cy="2.839" r="2.839" transform="translate(776.429 605.909)" fill="#161615"/>
  </g>
</svg>
