<?xml version="1.0" encoding="UTF-8"?>
<svg id="Layer_2" data-name="Layer 2" xmlns="http://www.w3.org/2000/svg" viewBox="0 0 1362.78 1106.54">
  <defs>
    <style>
      .cls-1 {
        fill: #3fd246;
      }

      .cls-2 {
        fill: #0e2615;
      }
    </style>
  </defs>
  <g id="Layer_1-2" data-name="Layer 1">
    <g>
      <g>
        <path class="cls-2" d="M0,895.73v-63.97H198.58v63.97H0Zm62.86,204.7v-380.47h72.87v380.47H62.86Z"/>
        <path class="cls-2" d="M248.64,788.37c-11.87,0-21.69-3.98-29.48-11.96-7.79-7.97-11.68-17.89-11.68-29.76s3.89-21.32,11.68-29.48c7.79-8.15,17.61-12.24,29.48-12.24s22.15,4.08,29.76,12.24c7.6,8.16,11.4,17.99,11.4,29.48s-3.81,21.79-11.4,29.76c-7.61,7.98-17.52,11.96-29.76,11.96Zm-37.27,312.05v-268.67h73.98v268.67h-73.98Z"/>
        <path class="cls-2" d="M448.32,1106.54c-27.07,0-51.55-6.21-73.42-18.63-21.88-12.42-39.13-29.29-51.73-50.62-12.61-21.32-18.91-44.96-18.91-70.92s6.3-50.71,18.91-72.03c12.6-21.32,29.85-38.1,51.73-50.34,21.88-12.24,46.53-18.36,73.98-18.36,21.14,0,40.61,3.81,58.41,11.4,17.8,7.6,33.38,18.83,46.72,33.65l-47.84,47.84c-6.67-8.15-14.93-14.27-24.75-18.36-9.83-4.08-20.68-6.12-32.54-6.12-13.35,0-25.31,3.06-35.88,9.18-10.57,6.12-18.83,14.56-24.75,25.31-5.94,10.76-8.9,23.18-8.9,37.27s2.96,26.52,8.9,37.27c5.93,10.76,14.18,19.29,24.75,25.59,10.57,6.31,22.53,9.46,35.88,9.46,12.24,0,23.17-2.13,32.82-6.4,9.64-4.26,18.17-10.47,25.59-18.63l46.72,47.28c-12.98,14.84-28.46,26.24-46.45,34.21-17.99,7.97-37.74,11.96-59.24,11.96Z"/>
        <path class="cls-2" d="M567.91,1100.43v-402.17h72.87v402.17h-72.87Zm170.77,0l-103.46-138.51,102.91-130.16h84.55l-121.26,146.85,2.78-35.6,123.49,157.42h-89Z"/>
        <path class="cls-2" d="M950.61,1106.54c-28.19,0-53.31-6.12-75.37-18.36-22.07-12.24-39.41-28.92-52.01-50.06-12.61-21.14-18.91-45.24-18.91-72.31s6.21-50.62,18.63-71.75c12.42-21.14,29.38-37.83,50.9-50.06,21.5-12.24,45.61-18.36,72.31-18.36,25.21,0,47.84,5.75,67.86,17.24,20.03,11.5,35.6,27.45,46.72,47.84,11.12,20.4,16.69,43.58,16.69,69.53,0,4.82-.19,9.73-.56,14.74-.37,5.01-1.3,10.48-2.78,16.41l-226.39,.56v-54.51l192.46-.56-30.04,22.81c-.37-15.94-3.16-29.29-8.34-40.05-5.2-10.75-12.43-18.91-21.69-24.47-9.27-5.56-20.77-8.34-34.49-8.34-14.46,0-27.07,3.15-37.82,9.46-10.76,6.31-19.01,15.3-24.75,26.98-5.75,11.68-8.62,25.5-8.62,41.44s3.06,30.51,9.18,42.55c6.12,12.06,14.92,21.23,26.42,27.53,11.49,6.31,24.84,9.46,40.05,9.46,13.72,0,26.14-2.23,37.27-6.68,11.12-4.45,20.76-11.49,28.92-21.14l43.39,43.39c-13.72,15.58-29.85,27.26-48.39,35.04-18.55,7.79-38.75,11.68-60.63,11.68Z"/>
        <path class="cls-2" d="M1065.75,895.73v-63.97h198.58v63.97h-198.58Zm62.86,204.7v-380.47h72.87v380.47h-72.87Z"/>
        <path class="cls-2" d="M1308.83,1106.54c-13.72,0-24.85-4.54-33.37-13.63-8.54-9.08-12.79-20.11-12.79-33.1s4.26-24.38,12.79-33.1c8.53-8.71,19.65-13.07,33.37-13.07,12.98,0,23.82,4.36,32.54,13.07,8.71,8.72,13.07,19.75,13.07,33.1s-4.36,24.01-13.07,33.1c-8.72,9.08-19.56,13.63-32.54,13.63Z"/>
      </g>
      <path class="cls-1" d="M462.45,93.68l-47.43,339.86c-15.57,111.58-118.65,189.41-230.23,173.84h0C73.2,591.8-4.63,488.72,10.94,377.14L58.37,37.29l225.92,31.53c-8.41,25.32-21.02,49.02-34.6,71.97-20.6,34.15-43.06,67.55-58.81,104.28-18,41.91-25.37,87.37-21.6,132.8,2.08,25.13,8.14,50.21,17.17,73.76,5.99,15.63,26.33,24.54,41.77,17.39,16.03-7.42,23.82-25.04,17.39-41.77-2.44-6.35-4.58-12.79-6.45-19.31-4.56-18.24-6.93-36.89-7.19-55.67,.5-18.41,3.02-36.7,7.67-54.53,8.58-28.14,22.3-54.26,37.26-79.51,18.54-30.78,38.54-60.88,53.84-93.44,7.13-15.22,12.81-30.91,17.23-47.09l114.46,15.97Z"/>
      <path class="cls-1" d="M1184.3,0l156.11,305.58c51.25,100.33,11.47,223.21-88.86,274.47h0c-100.33,51.25-223.21,11.47-274.47-88.86l-156.11-305.58,203.13-103.77c7.63,25.56,10.9,52.21,12.94,78.79,2.72,39.79,3.48,80.03,11.65,119.16,9.3,44.65,29.34,86.12,58.49,121.17,16.12,19.39,35.47,36.46,56.37,50.57,13.88,9.37,35.65,5,44.19-9.71,8.87-15.27,5.14-34.17-9.71-44.19-5.64-3.8-11.09-7.85-16.36-12.12-14.2-12.33-26.84-26.24-37.82-41.47-10.15-15.37-18.58-31.79-24.99-49.07-9.11-27.97-12.86-57.24-15.09-86.5-2.47-35.85-3.36-71.98-9.5-107.43-2.89-16.56-7.24-32.66-12.9-48.46L1184.3,0Z"/>
      <path class="cls-1" d="M720.58,207.13c.93-.7,1.86-1.44,2.78-2.21,1.25-.9,2.46-1.86,3.68-2.78-2.14,1.66-4.32,3.33-6.46,4.99Z"/>
      <path class="cls-1" d="M562.56,490.2c-5.44,7.01-9.38,13.37-9.38,22.65,0,7.84,3.49,17.21,9.38,22.62,6.11,5.6,14.11,9.76,22.62,9.38,7.87-.35,17.57-2.88,22.62-9.38,26.65-34.27,53.75-68.47,85.37-98.33,8.13-7.65,16.51-15.01,25.28-21.89,16.03-12.03,33.12-22.49,51.42-30.69,.03-.03,.06-.06,.1-.06,17.12-6.81,34.88-11.33,53.08-14.05,.1-.03,.16-.03,.26-.03,19.58-2.27,39.26-2.85,58.94-3.17v247.11H474.29v-236.36c72.12-31.23,140.34-70.2,202.86-118.07,20-15.29,39.58-31.13,58.43-47.83,5.92-5.22,9.38-14.91,9.38-22.62s-3.49-17.21-9.38-22.62c-6.11-5.6-14.11-9.76-22.62-9.37-8.77,.42-16.03,3.52-22.62,9.37-14.88,13.18-30.17,25.89-45.82,38.04-48.57,37.12-100.69,69.5-155.57,96.44-4.86,2.4-9.76,4.74-14.65,7.04V67.24h407.96v236.07c-31.93,.58-63.9,1.95-95.19,8.93-63.19,14.08-116.53,54.43-160.11,100.76-22.97,24.45-43.8,50.78-64.38,77.21Z"/>
      <path class="cls-1" d="M727.04,202.14c-2.14,1.66-4.32,3.33-6.46,4.99,.93-.7,1.86-1.44,2.78-2.21,1.25-.9,2.46-1.86,3.68-2.78Z"/>
    </g>
  </g>
</svg>