<svg xmlns="http://www.w3.org/2000/svg" width="54.899" height="54.899" viewBox="0 0 54.899 54.899">
  <g id="Group_37" data-name="Group 37" transform="translate(-659.715 -578.777)">
    <rect id="Rectangle_96" data-name="Rectangle 96" width="44.666" height="44.666" rx="15" transform="translate(661.162 583.894)" fill="#122114"/>
    <rect id="Rectangle_97" data-name="Rectangle 97" width="44.666" height="44.666" rx="15" transform="matrix(0.964, 0.265, -0.265, 0.964, 671.541, 578.777)" fill="#31d760"/>
    <g id="Group_14" data-name="Group 14" transform="translate(677.68 592.162)">
      <path id="Path_16" data-name="Path 16" d="M733.311,620.443a2.756,2.756,0,0,1,2.755,2.756v14.863a9.02,9.02,0,0,1-2.746,6.945,10.588,10.588,0,0,1-7.505,2.554,10.706,10.706,0,0,1-7.441-2.48,8.13,8.13,0,0,1-2.427-3.955,9.456,9.456,0,0,1-.122-4.262l1.651-7.893a2.756,2.756,0,0,1,2.756-2.756h0a2.756,2.756,0,0,1,2.756,2.756l-1.741,8.222a6.63,6.63,0,0,0-.059,2.355,4.16,4.16,0,0,0,1.145,2.382,4.828,4.828,0,0,0,3.481,1.2q3.719,0,4.509-3.128a6.244,6.244,0,0,0,.034-2.7l-1.642-8.6a7.481,7.481,0,0,1,3.127-7.669,3,3,0,0,1,1.449-.593Z" transform="translate(-715.641 -620.443)" fill="#fff"/>
    </g>
  </g>
</svg>
