<svg width="893" height="1502" viewBox="0 0 893 1502" fill="none" xmlns="http://www.w3.org/2000/svg">
<g opacity="0.5">
<mask id="mask0_531_14" style="mask-type:alpha" maskUnits="userSpaceOnUse" x="204" y="116" width="852" height="852">
<circle cx="629.766" cy="541.766" r="425.766" fill="#D9D9D9"/>
</mask>
<g mask="url(#mask0_531_14)">
<line x1="265.982" y1="-157.597" x2="265.982" y2="1241.13" stroke="#06BA6B" stroke-dasharray="35 35"/>
<line x1="412.003" y1="-157.597" x2="412.003" y2="1241.13" stroke="#06BA6B" stroke-dasharray="35 35"/>
<line x1="558.023" y1="-157.597" x2="558.023" y2="1241.13" stroke="#06BA6B" stroke-dasharray="35 35"/>
<line x1="704.045" y1="-157.597" x2="704.045" y2="1241.13" stroke="#06BA6B" stroke-dasharray="35 35"/>
<line x1="850.066" y1="-157.597" x2="850.066" y2="1241.13" stroke="#06BA6B" stroke-dasharray="35 35"/>
<line x1="-68.8291" y1="906.319" x2="1329.9" y2="906.319" stroke="#06BA6B" stroke-dasharray="35 35"/>
<line x1="-68.8291" y1="760.298" x2="1329.9" y2="760.298" stroke="#06BA6B" stroke-dasharray="35 35"/>
<line x1="-68.8291" y1="614.277" x2="1329.9" y2="614.277" stroke="#06BA6B" stroke-dasharray="35 35"/>
<line x1="-68.8291" y1="468.256" x2="1329.9" y2="468.256" stroke="#06BA6B" stroke-dasharray="35 35"/>
<line x1="-68.8291" y1="322.235" x2="1329.9" y2="322.235" stroke="#06BA6B" stroke-dasharray="35 35"/>
<line x1="-68.8291" y1="176.214" x2="1329.9" y2="176.214" stroke="#06BA6B" stroke-dasharray="35 35"/>
</g>
</g>
<g opacity="0.08" filter="url(#filter0_f_531_14)">
<circle cx="882.5" cy="856.241" r="420.5" fill="#06BA6B"/>
</g>
<defs>
<filter id="filter0_f_531_14" x="237" y="210.741" width="1291" height="1291" filterUnits="userSpaceOnUse" color-interpolation-filters="sRGB">
<feFlood flood-opacity="0" result="BackgroundImageFix"/>
<feBlend mode="normal" in="SourceGraphic" in2="BackgroundImageFix" result="shape"/>
<feGaussianBlur stdDeviation="112.5" result="effect1_foregroundBlur_531_14"/>
</filter>
</defs>
</svg>
