<svg width="20" height="20" viewBox="0 0 20 20" fill="none" xmlns="http://www.w3.org/2000/svg">
<path d="M18.9248 1.08918C18.7938 0.957848 18.6381 0.853656 18.4667 0.782566C18.2953 0.711475 18.1116 0.674882 17.9261 0.674882C17.7405 0.674882 17.5568 0.711475 17.3854 0.782566C17.2141 0.853656 17.0584 0.957848 16.9273 1.08918L9.99983 8.00251L3.07233 1.07501C2.94117 0.943854 2.78546 0.839814 2.6141 0.768832C2.44273 0.69785 2.25906 0.661316 2.07358 0.661316C1.88809 0.661316 1.70442 0.69785 1.53306 0.768832C1.36169 0.839814 1.20599 0.943854 1.07483 1.07501C0.943671 1.20617 0.839631 1.36188 0.768648 1.53324C0.697666 1.70461 0.661133 1.88828 0.661133 2.07376C0.661133 2.25925 0.697666 2.44292 0.768648 2.61428C0.839631 2.78565 0.943671 2.94135 1.07483 3.07251L8.00233 10L1.07483 16.9275C0.943671 17.0587 0.839631 17.2144 0.768648 17.3857C0.697666 17.5571 0.661133 17.7408 0.661133 17.9263C0.661133 18.1117 0.697666 18.2954 0.768648 18.4668C0.839631 18.6381 0.943671 18.7939 1.07483 18.925C1.20599 19.0562 1.36169 19.1602 1.53306 19.2312C1.70442 19.3022 1.88809 19.3387 2.07358 19.3387C2.25906 19.3387 2.44273 19.3022 2.6141 19.2312C2.78546 19.1602 2.94117 19.0562 3.07233 18.925L9.99983 11.9975L16.9273 18.925C17.0585 19.0562 17.2142 19.1602 17.3856 19.2312C17.5569 19.3022 17.7406 19.3387 17.9261 19.3387C18.1116 19.3387 18.2952 19.3022 18.4666 19.2312C18.638 19.1602 18.7937 19.0562 18.9248 18.925C19.056 18.7939 19.16 18.6381 19.231 18.4668C19.302 18.2954 19.3385 18.1117 19.3385 17.9263C19.3385 17.7408 19.302 17.5571 19.231 17.3857C19.16 17.2144 19.056 17.0587 18.9248 16.9275L11.9973 10L18.9248 3.07251C19.4632 2.53418 19.4632 1.62751 18.9248 1.08918Z" fill="#868686"/>
</svg>
