<svg width="19" height="19" viewBox="0 0 19 19" fill="none" xmlns="http://www.w3.org/2000/svg">
<path fill-rule="evenodd" clip-rule="evenodd" d="M13.3555 0C13.9078 0 14.3555 0.447715 14.3555 1H17.3555C17.9078 1 18.3555 1.44772 18.3555 2V6V16C18.3555 17.6569 17.0123 19 15.3555 19H3.35547C1.69861 19 0.355469 17.6569 0.355469 16V6V2C0.355469 1.44772 0.803184 1 1.35547 1H4.35547C4.35547 0.447715 4.80318 0 5.35547 0C5.90775 0 6.35547 0.447715 6.35547 1H12.3555C12.3555 0.447715 12.8032 0 13.3555 0ZM4.35547 3C4.35547 3.55228 4.80318 4 5.35547 4C5.90775 4 6.35547 3.55228 6.35547 3H12.3555C12.3555 3.55228 12.8032 4 13.3555 4C13.9078 4 14.3555 3.55228 14.3555 3H16.3555V5H2.35547V3H4.35547Z" fill="#868686"/>
</svg>
