<svg width="24" height="26" viewBox="0 0 24 26" fill="none" xmlns="http://www.w3.org/2000/svg">
<path d="M7.75008 3.08333C7.37436 3.08333 7.01402 3.23258 6.74835 3.49826C6.48267 3.76393 6.33342 4.12427 6.33342 4.49999C6.33342 4.87572 6.48267 5.23605 6.74835 5.50173C7.01402 5.7674 7.37436 5.91666 7.75008 5.91666C8.12581 5.91666 8.48614 5.7674 8.75182 5.50173C9.01749 5.23605 9.16675 4.87572 9.16675 4.49999C9.16675 4.12427 9.01749 3.76393 8.75182 3.49826C8.48614 3.23258 8.12581 3.08333 7.75008 3.08333ZM3.74092 3.08333C4.0336 2.25382 4.57638 1.53552 5.29443 1.02744C6.01248 0.519365 6.87045 0.246521 7.75008 0.246521C8.62971 0.246521 9.48768 0.519365 10.2057 1.02744C10.9238 1.53552 11.4666 2.25382 11.7592 3.08333H21.9167C22.2925 3.08333 22.6528 3.23258 22.9185 3.49826C23.1842 3.76393 23.3334 4.12427 23.3334 4.49999C23.3334 4.87572 23.1842 5.23605 22.9185 5.50173C22.6528 5.7674 22.2925 5.91666 21.9167 5.91666H11.7592C11.4666 6.74616 10.9238 7.46446 10.2057 7.97254C9.48768 8.48062 8.62971 8.75346 7.75008 8.75346C6.87045 8.75346 6.01248 8.48062 5.29443 7.97254C4.57638 7.46446 4.0336 6.74616 3.74092 5.91666H2.08341C1.70769 5.91666 1.34736 5.7674 1.08168 5.50173C0.816004 5.23605 0.666748 4.87572 0.666748 4.49999C0.666748 4.12427 0.816004 3.76393 1.08168 3.49826C1.34736 3.23258 1.70769 3.08333 2.08341 3.08333H3.74092ZM16.2501 11.5833C15.8744 11.5833 15.514 11.7326 15.2483 11.9983C14.9827 12.2639 14.8334 12.6243 14.8334 13C14.8334 13.3757 14.9827 13.736 15.2483 14.0017C15.514 14.2674 15.8744 14.4167 16.2501 14.4167C16.6258 14.4167 16.9861 14.2674 17.2518 14.0017C17.5175 13.736 17.6667 13.3757 17.6667 13C17.6667 12.6243 17.5175 12.2639 17.2518 11.9983C16.9861 11.7326 16.6258 11.5833 16.2501 11.5833ZM12.2409 11.5833C12.5336 10.7538 13.0764 10.0355 13.7944 9.52744C14.5125 9.01936 15.3705 8.74652 16.2501 8.74652C17.1297 8.74652 17.9877 9.01936 18.7057 9.52744C19.4238 10.0355 19.9666 10.7538 20.2592 11.5833H21.9167C22.2925 11.5833 22.6528 11.7326 22.9185 11.9983C23.1842 12.2639 23.3334 12.6243 23.3334 13C23.3334 13.3757 23.1842 13.736 22.9185 14.0017C22.6528 14.2674 22.2925 14.4167 21.9167 14.4167H20.2592C19.9666 15.2462 19.4238 15.9645 18.7057 16.4725C17.9877 16.9806 17.1297 17.2535 16.2501 17.2535C15.3705 17.2535 14.5125 16.9806 13.7944 16.4725C13.0764 15.9645 12.5336 15.2462 12.2409 14.4167H2.08341C1.70769 14.4167 1.34736 14.2674 1.08168 14.0017C0.816004 13.736 0.666748 13.3757 0.666748 13C0.666748 12.6243 0.816004 12.2639 1.08168 11.9983C1.34736 11.7326 1.70769 11.5833 2.08341 11.5833H12.2409ZM7.75008 20.0833C7.37436 20.0833 7.01402 20.2326 6.74835 20.4983C6.48267 20.7639 6.33342 21.1243 6.33342 21.5C6.33342 21.8757 6.48267 22.2361 6.74835 22.5017C7.01402 22.7674 7.37436 22.9167 7.75008 22.9167C8.12581 22.9167 8.48614 22.7674 8.75182 22.5017C9.01749 22.2361 9.16675 21.8757 9.16675 21.5C9.16675 21.1243 9.01749 20.7639 8.75182 20.4983C8.48614 20.2326 8.12581 20.0833 7.75008 20.0833ZM3.74092 20.0833C4.0336 19.2538 4.57638 18.5355 5.29443 18.0274C6.01248 17.5194 6.87045 17.2465 7.75008 17.2465C8.62971 17.2465 9.48768 17.5194 10.2057 18.0274C10.9238 18.5355 11.4666 19.2538 11.7592 20.0833H21.9167C22.2925 20.0833 22.6528 20.2326 22.9185 20.4983C23.1842 20.7639 23.3334 21.1243 23.3334 21.5C23.3334 21.8757 23.1842 22.2361 22.9185 22.5017C22.6528 22.7674 22.2925 22.9167 21.9167 22.9167H11.7592C11.4666 23.7462 10.9238 24.4645 10.2057 24.9725C9.48768 25.4806 8.62971 25.7535 7.75008 25.7535C6.87045 25.7535 6.01248 25.4806 5.29443 24.9725C4.57638 24.4645 4.0336 23.7462 3.74092 22.9167H2.08341C1.70769 22.9167 1.34736 22.7674 1.08168 22.5017C0.816004 22.2361 0.666748 21.8757 0.666748 21.5C0.666748 21.1243 0.816004 20.7639 1.08168 20.4983C1.34736 20.2326 1.70769 20.0833 2.08341 20.0833H3.74092Z" fill="#868686"/>
</svg>
