<svg width="18" height="21" viewBox="0 0 18 21" fill="none" xmlns="http://www.w3.org/2000/svg">
<path fill-rule="evenodd" clip-rule="evenodd" d="M15.3901 2.7929C11.962 -0.63519 6.40394 -0.63519 2.97585 2.7929C-0.452239 6.22099 -0.452236 11.779 2.97585 15.2071L8.47585 20.7071C8.66339 20.8946 8.91774 21 9.18296 21C9.44817 21 9.70253 20.8946 9.89006 20.7071L15.3901 15.2071C18.8182 11.779 18.8182 6.22099 15.3901 2.7929ZM7.68296 9.00001C7.68296 8.17158 8.35453 7.50001 9.18296 7.50001H9.19296C10.0214 7.50001 10.693 8.17158 10.693 9.00001V9.01001C10.693 9.83843 10.0214 10.51 9.19296 10.51H9.18296C8.35453 10.51 7.68296 9.83843 7.68296 9.01001V9.00001Z" fill="#868686"/>
</svg>
